_________________________  Visit us at _________________________
  
http://tinym.eu  ____________________________  http://p2pdl.com


End of Watch 2012 R5 DVDRip 350MB x264 AAC - ViZNU [P2PDL]

					
Genre: Crime | Drama | Thriller 
Plot: Two young officers are marked for death after confiscating a small cache of money and firearms
from the members of a notorious cartel, during a routine traffic stop.  
Director: David Ayer
Stars: Jake Gyllenhaal, Michael Peña and Anna Kendrick.
Rated: R for strong violence, some disturbing images, pervasive language including sexual references,
and some drug use. 
http://cinemahouse.in/movie/222/End+of+Watch


General
Release name                   : End of Watch 2012 R5 DVDRip 350MB x264 AAC - ViZNU [P2PDL]
Format                         : MPEG-4
Format profile                 : Base Media
Codec ID                       : isom
File size                      : 352 MiB
Duration                       : 1h 44mn
Overall bit rate mode          : Variable
Overall bit rate               : 472 Kbps
Source                         : R5.DVD9.PAL

Video
ID                             : 1
Format                         : AVC
Format/Info                    : Advanced Video Codec
Duration                       : 1h 44mn
Bit rate                       : 429 Kbps
Maximum bit rate               : 3 600 Kbps
Width                          : 720 pixels
Height                         : 400 pixels
Display aspect ratio           : 16:9
Frame rate mode                : Constant
Frame rate                     : 25.000 fps
Stream size                    : 319 MiB (91%)
Writing library                : x264 core 125

Audio
ID                             : 2
Format                         : AAC
Format/Info                    : Advanced Audio Codec
Duration                       : 1h 44mn
Bit rate mode                  : Variable
Bit rate                       : 40.0 Kbps
Maximum bit rate               : 47.3 Kbps
Channel(s)                     : 2 channels
Channel positions              : Front: L R
Sampling rate                  : 44.1 KHz / 22.05 KHz
Stream size                    : 29.8 MiB (8%)
Language                       : English

Subtitle                       : Yes(English)


Screens:
 
http://www.shotpix.com/images/10588914595237708279.png 
http://www.shotpix.com/images/09164616921444833707.png 
http://www.shotpix.com/images/05029970227871015038.png 
http://www.shotpix.com/images/70994939308821373701.png 
http://www.shotpix.com/images/77007032885434985863.png 
http://www.shotpix.com/images/09498549974276909433.png

----------------------------------------------------------------------------------------------------


Recommend to you to use latest version of VLC player. Install K-Lite Codec Pack or shark007 codecs
in case of any kind of problem in playback (For non-VLC Media Player users). Alternatively, install
Core AVC codecs, the fastest decoder that there is coupled with Community Center Codec Pack and play
on Windows Media Player Classic. Check sample to be sure.
Enjoy!


Greets to: Vitamin_X, a2zRG, srkfan, staff members at ExtraTorrent, TPB,KAT, 1337x, PublicHD, Ahashare,
BTScene, SilverTorrent, TorrentMafia, DigTorrent, P2PDL, and all others.


Encoder Notes: Looking For Early Access To Anything You Can Provide DVDScr, R5, DVDR, BluRay, Direct
Audio, Early Music Releases, Seedboxes, Dedicated Servers anything u can provide, Advance / Promo CDs/
DVDs. If You Got anything to offer contact me at "prg@hush.com".


Facebook Fan Page: www . facebook . com / p2pdl